<svg width="32" height="32" viewBox="0 0 32 32" fill="none" xmlns="http://www.w3.org/2000/svg">
  <!-- White background circle -->
  <circle cx="16" cy="16" r="15" fill="#FFFFFF" stroke="#003087" stroke-width="1.2"/>
  
  <!-- Barrier -->
  <rect x="3" y="22" width="26" height="3" fill="#003087"/>
  <path d="M6 25 L6 29 L5.5 29.5 L6.5 30 L7 29.5 L6.5 29 L7 29 L7 25 Z" fill="#003087"/>
  <path d="M14 25 L14 29 L13.5 29.5 L14.5 30 L15 29.5 L14.5 29 L15 29 L15 25 Z" fill="#003087"/>
  <path d="M23 25 L23 29 L22.5 29.5 L23.5 30 L24 29.5 L23.5 29 L24 29 L24 25 Z" fill="#003087"/>
  <line x1="26" y1="22" x2="26" y2="25" stroke="#004C97" stroke-width="0.6" opacity="0.7"/>
  <line x1="27" y1="22" x2="27" y2="25" stroke="#004C97" stroke-width="0.6" opacity="0.7"/>
  
  <!-- Person vaulting -->
  <circle cx="16" cy="6" r="2.2" fill="#003087"/>
  <path d="M15.5 5.5 L16 5 L16.5 5.5 M16.5 5.5 L17 5 L17.5 5.5" stroke="#003087" stroke-width="0.4" stroke-linecap="round"/>
  
  <path d="M16 8.5 L17 14.5" 
        stroke="#003087" stroke-width="2.4" stroke-linecap="round" stroke-linejoin="round"/>
  <rect x="15" y="8.5" width="3.5" height="6.5" rx="0.8" fill="#003087"/>
  
  <path d="M15 11 L12.5 6.5" 
        stroke="#003087" stroke-width="2.2" stroke-linecap="round" stroke-linejoin="round"/>
  <circle cx="12" cy="6" r="1.2" fill="#003087"/>
  <line x1="12" y1="6" x2="10.8" y2="5.2" stroke="#003087" stroke-width="1" stroke-linecap="round"/>
  <line x1="12" y1="6" x2="11.2" y2="6" stroke="#003087" stroke-width="1" stroke-linecap="round"/>
  <line x1="12" y1="6" x2="10.8" y2="6.8" stroke="#003087" stroke-width="1" stroke-linecap="round"/>
  
  <path d="M17 11 L19.5 16" 
        stroke="#003087" stroke-width="2.2" stroke-linecap="round" stroke-linejoin="round"/>
  <circle cx="19.8" cy="16.5" r="1.2" fill="#003087"/>
  <line x1="19.8" y1="16.5" x2="21" y2="15.5" stroke="#003087" stroke-width="1" stroke-linecap="round"/>
  <line x1="19.8" y1="16.5" x2="20.6" y2="16.5" stroke="#003087" stroke-width="1" stroke-linecap="round"/>
  <line x1="19.8" y1="16.5" x2="21" y2="17.5" stroke="#003087" stroke-width="1" stroke-linecap="round"/>
  
  <path d="M16.5 14.5 L14 19.5" 
        stroke="#003087" stroke-width="2.4" stroke-linecap="round" stroke-linejoin="round"/>
  <rect x="12.5" y="14.5" width="3.5" height="5.5" rx="0.8" fill="#003087"/>
  <ellipse cx="13.5" cy="20.5" rx="1.6" ry="1" fill="#003087"/>
  <line x1="13" y1="20.5" x2="14" y2="20.5" stroke="#004C97" stroke-width="0.6" opacity="0.6"/>
  
  <path d="M17 14.5 L20.5 18" 
        stroke="#003087" stroke-width="2.4" stroke-linecap="round" stroke-linejoin="round"/>
  <rect x="17" y="14.5" width="4" height="4" rx="0.8" fill="#003087"/>
  <ellipse cx="20.8" cy="19" rx="1.6" ry="1" fill="#003087" transform="rotate(25 20.8 19)"/>
  <line x1="20.2" y1="19" x2="21.4" y2="19" stroke="#004C97" stroke-width="0.6" opacity="0.6" transform="rotate(25 20.8 19)"/>
</svg>
